<?xml version="1.0" encoding="UTF-8"?>
<svg version="1.1" xmlns="http://www.w3.org/2000/svg" width="1024" height="1024">
<path d="M0 0 C337.92 0 675.84 0 1024 0 C1024 337.92 1024 675.84 1024 1024 C686.08 1024 348.16 1024 0 1024 C0 686.08 0 348.16 0 0 Z " fill="#FEFEFE" transform="translate(0,0)"/>
<path d="M0 0 C337.92 0 675.84 0 1024 0 C1024 337.92 1024 675.84 1024 1024 C686.08 1024 348.16 1024 0 1024 C0 686.08 0 348.16 0 0 Z M459 62 C458.04770508 62.10683105 457.09541016 62.21366211 456.11425781 62.32373047 C430.68241433 65.19081538 405.35564457 71.25925395 381 79 C380.04963867 79.29455078 379.09927734 79.58910156 378.12011719 79.89257812 C324.87856363 96.44231918 275.66161182 123.09370859 233 159 C231.99557861 159.83378174 230.99115723 160.66756348 229.95629883 161.52661133 C221.27989827 168.79046509 213.1675038 176.52103318 205.19360352 184.5456543 C203.17882165 186.57122482 201.15346725 188.58578384 199.12695312 190.59960938 C191.95643537 197.76284413 185.25890819 205.01813881 179 213 C178.13740715 214.02821784 177.26899623 215.05163419 176.390625 216.06640625 C169.03468901 224.64385716 162.48186595 233.75292485 156 243 C155.56187988 243.62213379 155.12375977 244.24426758 154.67236328 244.88525391 C101.73592449 320.54173506 73.84473807 415.57404578 83.26123047 582.9375 C86.98458466 603.7099627 92.37529724 623.96679053 99 644 C99.28311035 644.87624023 99.5662207 645.75248047 99.85791016 646.65527344 C115.77511469 695.78479428 142.88134664 741.56228501 176 781 C176.80824219 781.99386719 177.61648437 782.98773437 178.44921875 784.01171875 C184.95402651 791.90922254 192.02045708 799.20885861 199.25 806.4375 C199.72158539 806.90999176 200.19317078 807.38248352 200.67904663 807.86929321 C207.79726355 814.9859626 215.06371661 821.7997786 223 828 C222.82984375 828.54785156 222.6596875 829.09570312 222.484375 829.66015625 C220.85268972 834.99785012 219.3273761 840.36088521 217.875 845.75 C217.54242188 846.98234375 217.20984375 848.2146875 216.8671875 849.484375 C211.24644716 872.27116018 214.35842219 896.00609744 225.94433594 916.2578125 C228.55012009 920.55820003 231.60360285 924.30744206 235 928 C236.08861328 929.22589844 236.08861328 929.22589844 237.19921875 930.4765625 C257.9678096 952.65261157 288.79153613 962.50864238 318 967 C318.73669922 967.11714355 319.47339844 967.23428711 320.23242188 967.35498047 C352.5108297 972.34197966 384.75530476 967.38051517 414 953 C414.97380615 952.53037842 414.97380615 952.53037842 415.96728516 952.05126953 C426.63931067 946.85954762 438.55938912 940.44061088 447 932 C453.53372613 931.51778956 459.99366834 932.35786978 466.45898438 933.20117188 C482.52028895 935.15986756 498.71937827 935.20506965 514.875 935.1875 C515.90669312 935.18689575 516.93838623 935.1862915 518.00134277 935.18566895 C610.26098075 935.03944585 697.79768105 905.63738231 781 844 C781.95003906 843.24976563 782.90007813 842.49953125 783.87890625 841.7265625 C805.76590206 824.07678713 828.52525588 804.84228376 845.91015625 782.65234375 C847.85247124 780.18723744 849.86844004 777.80273195 851.91992188 775.42822266 C913.69365363 703.75596516 952.85893912 605.44690557 953.203125 510.44140625 C953.20882507 509.17699203 953.21452515 507.91257782 953.22039795 506.60984802 C953.22978917 503.941604 953.23671428 501.27347064 953.24023438 498.60522461 C953.24669673 494.6318309 953.28086999 490.65881929 953.3125 486.68554688 C953.71607455 389.16952929 916.50533571 292.4998811 854.42236328 217.7265625 C853.17922023 216.21754986 851.96050954 214.68847651 850.74609375 213.15625 C837.58268816 196.57085852 822.21377134 180.64293913 806 167 C804.95324533 166.09120311 803.90779662 165.18090096 802.86328125 164.26953125 C730.60223136 101.39947999 640.04261738 67.20346841 516.125 58.6875 C515.11584534 58.68865814 514.10669067 58.68981628 513.06695557 58.69100952 C494.88807635 58.73191834 477.04097101 59.80239711 459 62 Z " fill="#FEFEFE" transform="translate(0,0)"/>
<path d="M0 0 C1.04285156 0.28037109 2.08570313 0.56074219 3.16015625 0.84960938 C47.44494424 12.92001188 88.84356835 31.79091162 127.0625 57.1875 C127.90297882 57.74591583 127.90297882 57.74591583 128.76043701 58.31561279 C139.54658721 65.50916394 149.94982966 73.18490046 160 81.375 C160.67224609 81.92172363 161.34449219 82.46844727 162.03710938 83.03173828 C167.2456298 87.30415948 172.24423687 91.75856342 177.15625 96.3671875 C179.34254875 98.39131574 181.55281175 100.3490358 183.80859375 102.29296875 C188.24645738 106.15972596 192.41298003 110.2654487 196.5625 114.4375 C197.27857422 115.14970703 197.99464844 115.86191406 198.73242188 116.59570312 C203.36161482 121.23332044 207.7354893 126.02700003 212 131 C212.94953712 132.08289461 213.90000793 133.16497147 214.8515625 134.24609375 C250.79956434 175.45681127 278.50103166 223.59712897 297 275 C297.53318848 276.46590576 297.53318848 276.46590576 298.07714844 277.96142578 C314.00282388 322.15704433 321.62451866 368.81470406 321.39111328 415.73217773 C321.37498547 419.56595312 321.39111568 423.39867719 321.41015625 427.23242188 C321.48090526 515.62468539 292.12355333 607.71756879 238 678 C236.54105233 679.97871385 235.08270384 681.95786965 233.625 683.9375 C228.46312872 690.79239145 223.06356519 697.4471643 217.59814453 704.06103516 C216.15846839 705.80773664 214.73288763 707.56498454 213.30859375 709.32421875 C206.74761313 717.30620235 199.54791502 724.63569068 192.25 731.9375 C191.75413391 732.4343631 191.25826782 732.9312262 190.74737549 733.44314575 C185.01026763 739.17894827 179.17628028 744.73734619 173 750 C171.8201371 751.03347191 170.64173081 752.06860931 169.46484375 753.10546875 C155.656396 765.19853316 141.53072152 776.28870521 126.25878906 786.48779297 C124.18274126 787.87765895 122.11699537 789.28126771 120.0546875 790.69140625 C94.77616073 807.90500588 67.44036693 821.81835489 39 833 C37.99855957 833.39525879 36.99711914 833.79051758 35.96533203 834.19775391 C10.21057373 844.22820065 -16.77301983 851.33129391 -44 856 C-44.87414551 856.15162598 -45.74829102 856.30325195 -46.64892578 856.45947266 C-88.56416808 863.54474697 -136.31618635 865.05785947 -178.328125 857.5859375 C-183.67632937 856.99893946 -186.4212582 858.69735049 -190.625 861.9375 C-192.15833984 863.17306641 -192.15833984 863.17306641 -193.72265625 864.43359375 C-223.64320683 888.41157799 -265.1321438 898.31677311 -302.80859375 894.46875 C-308.56363009 893.79629045 -314.28415282 892.94685937 -320 892 C-320.84336914 891.86078125 -321.68673828 891.7215625 -322.55566406 891.578125 C-352.3732133 886.44822406 -384.36005464 872.79579953 -402.5703125 847.546875 C-412.74717994 832.6771012 -417.59986417 816.81921058 -417.4375 798.8125 C-417.43137695 797.64138672 -417.42525391 796.47027344 -417.41894531 795.26367188 C-417.18562822 782.19073574 -414.83943803 770.17570489 -409.5390625 758.1640625 C-408.79650787 755.99806843 -408.79650787 755.99806843 -409.6796875 753.91015625 C-411.11206112 751.83787606 -412.56217364 750.42073704 -414.5 748.8125 C-415.22445312 748.19632813 -415.94890625 747.58015625 -416.6953125 746.9453125 C-417.83613281 745.98238281 -417.83613281 745.98238281 -419 745 C-431.4983068 734.25422331 -443.79694248 722.62005915 -453.94921875 709.609375 C-455.8543471 707.18532598 -457.84216675 704.85535813 -459.86743164 702.53149414 C-471.57520756 689.0333361 -481.58579033 674.16096447 -491 659 C-491.60376465 658.03006104 -491.60376465 658.03006104 -492.21972656 657.04052734 C-544.85726972 571.7573779 -565.11856679 468.29634413 -544.85498047 325.61181641 C-537.78533212 295.74648869 -528.21905337 266.57408974 -515.27148438 238.73681641 C-514.08378804 236.18035023 -512.92162792 233.61388188 -511.765625 231.04296875 C-499.32339737 203.69781804 -483.2655679 177.80863403 -465 154 C-464.49162598 153.33323242 -463.98325195 152.66646484 -463.45947266 151.97949219 C-458.31357201 145.24695307 -453.0195673 138.70622444 -447.265625 132.4765625 C-446.04510133 131.14240386 -444.83125055 129.80118705 -443.66113281 128.42260742 C-438.13916962 121.93817121 -432.13217763 115.94608294 -426.11328125 109.92797852 C-424.26271033 108.07522532 -422.42029924 106.21461294 -420.578125 104.35351562 C-413.69154986 97.43466256 -406.67871243 91.04088207 -399 85 C-397.16390858 83.44074195 -395.32995036 81.87896067 -393.5 80.3125 C-369.25689016 60.15145621 -342.30228052 43.69611438 -313.97119141 29.95898438 C-312.02057424 29.01000937 -310.07876524 28.04449282 -308.13671875 27.078125 C-260.29124226 3.58905829 -206.97750223 -9.5628187 -154 -14 C-152.9682666 -14.0942627 -151.9365332 -14.18852539 -150.87353516 -14.28564453 C-100.47008784 -18.48030391 -48.76469469 -13.25058825 0 0 Z M-250 49 C-250.94488281 49.31549805 -251.88976562 49.63099609 -252.86328125 49.95605469 C-282.6243341 59.99780853 -311.0888951 74.25120683 -337 92 C-337.69641602 92.47260254 -338.39283203 92.94520508 -339.11035156 93.43212891 C-349.86216947 100.754024 -360.0375047 108.64170077 -370 117 C-370.59377441 117.49467773 -371.18754883 117.98935547 -371.79931641 118.49902344 C-390.48858502 134.09859696 -407.84687952 150.9144088 -423 170 C-423.91762459 171.11593906 -424.83699795 172.23044167 -425.7578125 173.34375 C-438.27558056 188.57332162 -449.04517041 205.0021191 -459 222 C-459.41846191 222.71446289 -459.83692383 223.42892578 -460.26806641 224.16503906 C-480.98531742 259.84430008 -495.43900896 298.66896899 -504 339 C-504.19432617 339.91378418 -504.38865234 340.82756836 -504.58886719 341.76904297 C-509.78121727 366.78384647 -511.54837853 391.93066041 -511.375 417.4375 C-511.37001495 418.68236176 -511.36502991 419.92722351 -511.3598938 421.20980835 C-511.27513486 439.3005536 -511.02024528 457.12381483 -508 475 C-507.88593811 475.67987976 -507.77187622 476.35975952 -507.65435791 477.0602417 C-504.2829963 497.00806594 -500.13173404 516.69919805 -494 536 C-493.69481445 536.96115723 -493.38962891 537.92231445 -493.07519531 538.91259766 C-473.41544098 599.8170905 -438.56702427 652.04416666 -393.9375 697.3125 C-393.12289307 698.1485376 -392.30828613 698.9845752 -391.46899414 699.84594727 C-385.74945367 705.59637017 -379.68805318 710.41719513 -373 715 C-367.03973001 711.39246816 -362.07005615 706.75213184 -357 702 C-356.23945313 701.2884375 -355.47890625 700.576875 -354.6953125 699.84375 C-352.77438207 698.17207672 -352.77438207 698.17207672 -353 696 C-354.99284138 694.6559907 -356.99419671 693.32458708 -359 692 C-368.94693185 683.04776134 -372.49268343 673.47732215 -375.49511719 660.70166016 C-384.75731101 621.70001267 -401.0768038 584.30466268 -415.7890625 547.125 C-421.59781416 532.44453735 -427.34041004 517.73863267 -433 503 C-433.27992798 502.27125671 -433.55985596 501.54251343 -433.8482666 500.79168701 C-442.6792025 477.76748825 -450.58895997 454.51848182 -458 431 C-458.66 431 -459.32 431 -460 431 C-464.67002577 440.36080722 -469.15251293 449.67672733 -472.4375 459.625 C-472.67162598 460.33317871 -472.90575195 461.04135742 -473.14697266 461.77099609 C-473.80431553 463.838109 -474.41479078 465.91137035 -475 468 C-475.19650146 468.69101807 -475.39300293 469.38203613 -475.59545898 470.09399414 C-477.21986148 476.46179535 -477.26439058 482.64370721 -477.1875 489.1875 C-477.18685547 490.24130859 -477.18621094 491.29511719 -477.18554688 492.38085938 C-477.15733703 497.35519576 -477.05471738 502.1145491 -476 507 C-489.05061468 489.66186349 -493.2665055 471.26482144 -490.53125 449.859375 C-485.35803801 418.94327475 -469.61829097 389.66180839 -445 370 C-441.14930814 367.40831893 -437.10418229 365.16311178 -433 363 C-433.18030762 363.53077148 -433.36061523 364.06154297 -433.54638672 364.60839844 C-436.43201367 373.17423246 -439.07395992 381.78547636 -441.35058594 390.53417969 C-441.89689358 392.60850569 -442.49349773 394.66949233 -443.1015625 396.7265625 C-443.97788076 400.98145718 -444.26475094 404.04404797 -441.82421875 407.81835938 C-438.52595574 411.99871598 -434.75193559 415.64521334 -430.85400391 419.26025391 C-429.20251483 420.80996567 -427.62798222 422.39629646 -426.07421875 424.04296875 C-390.45199095 461.45950136 -325.53574286 491.48731124 -273.64892578 493.19287109 C-272.08116657 493.22561288 -270.51326964 493.25219131 -268.9453125 493.2734375 C-268.0948082 493.28610153 -267.24430389 493.29876556 -266.36802673 493.31181335 C-247.04219142 493.54351113 -228.72987788 493.32190589 -210 488 C-208.34556885 487.53327881 -208.34556885 487.53327881 -206.65771484 487.05712891 C-184.46044323 480.59820235 -164.14342551 470.91963158 -145 458 C-144.39752441 457.59426758 -143.79504883 457.18853516 -143.17431641 456.77050781 C-127.1339871 445.86360285 -111.03898199 432.86107217 -98.60546875 417.91015625 C-97.4804625 416.57164517 -96.31187338 415.26913259 -95.11328125 413.99609375 C-72.65938236 390.63486713 -72.65938236 390.63486713 -61 362 C-76.21456337 357.1472124 -76.21456337 357.1472124 -92 356 C-92 355.34 -92 354.68 -92 354 C-91.42894531 353.89042969 -90.85789062 353.78085937 -90.26953125 353.66796875 C-89.45871094 353.50941406 -88.64789062 353.35085938 -87.8125 353.1875 C-86.88566406 353.00832031 -85.95882813 352.82914062 -85.00390625 352.64453125 C-83.05924798 352.22727688 -81.12632341 351.74880266 -79.21484375 351.19921875 C-62.32404583 346.50362144 -44.67652766 348.37643082 -28 353 C-27.32356445 353.18723633 -26.64712891 353.37447266 -25.95019531 353.56738281 C3.84191713 362.1025798 26.90362148 382.35126505 42.12255859 408.96289062 C58.93367535 439.55073662 64.22210303 474.87117919 64.25 509.375 C64.25101212 510.51251205 64.25101212 510.51251205 64.25204468 511.67300415 C64.19195479 554.69680541 55.3033832 596.42815604 36 635 C35.64760254 635.71961914 35.29520508 636.43923828 34.93212891 637.18066406 C27.02970502 653.23099599 16.95785381 667.89247048 6 682 C5.12866391 683.14043989 4.2575814 684.28107355 3.38671875 685.421875 C-2.69085984 693.3297752 -9.08726477 700.811674 -16 708 C-16.51852539 708.54043945 -17.03705078 709.08087891 -17.57128906 709.63769531 C-24.65186328 716.97373222 -31.93380302 723.74120951 -40 730 C-41.2776129 731.01789143 -42.55493668 732.03614582 -43.83203125 733.0546875 C-63.81827021 748.83935402 -86.22861105 761.61914945 -109.9375 770.9375 C-110.89519287 771.31922363 -111.85288574 771.70094727 -112.83959961 772.09423828 C-117.08726934 773.73024193 -121.09977789 775.13049584 -125.61328125 775.78515625 C-129.86042582 776.46669413 -133.69895515 777.08404567 -137 780 C-141.51321013 786.84999256 -144.31686879 794.62476772 -147.01708984 802.33032227 C-147.87475398 804.65981986 -148.83821133 806.81002511 -150 809 C-144.30060746 809.80783891 -138.76059205 810.17120558 -133.0078125 810.203125 C-132.15671402 810.21009399 -131.30561554 810.21706299 -130.4287262 810.22424316 C-127.66076718 810.24166659 -124.89301176 810.24797492 -122.125 810.25 C-121.17436676 810.25100708 -120.22373352 810.25201416 -119.24429321 810.25305176 C-93.55398241 810.23475017 -68.15429959 808.46930458 -43 803 C-42.00162109 802.79004395 -41.00324219 802.58008789 -39.97460938 802.36376953 C-8.71737995 795.75018549 21.13392686 785.65571975 50 772 C51.21937256 771.42427246 51.21937256 771.42427246 52.46337891 770.83691406 C89.93430669 752.98936924 125.37792934 728.52593941 154.30859375 698.62890625 C156 697 156 697 159 695 C159 694.34 159 693.68 159 693 C159.66 693 160.32 693 161 693 C162.56864082 691.4492093 162.56864082 691.4492093 164.1875 689.4375 C166.48728702 686.72517387 168.81054465 684.15033357 171.375 681.6875 C175.10643547 678.01423836 178.35174657 674.00817627 181.62890625 669.9296875 C183.95522096 667.0553283 186.34778994 664.24851404 188.75 661.4375 C199.58633124 648.43390251 209.06494743 634.35869073 218 620 C218.40250977 619.35869141 218.80501953 618.71738281 219.21972656 618.05664062 C245.6061258 575.7262111 261.66925611 528.30439177 269.75 479.25 C269.94875732 478.05673096 270.14751465 476.86346191 270.35229492 475.6340332 C273.3336953 456.69389818 274.35212947 437.84312233 274.25 418.6875 C274.24723053 417.66262482 274.24446106 416.63774963 274.24160767 415.58181763 C274.1932714 400.29729477 273.79604771 385.1922829 272 370 C271.90879883 369.12972168 271.81759766 368.25944336 271.72363281 367.36279297 C264.26071793 296.3603589 233.17032583 226.6459497 189 171 C187.90945313 169.61748047 187.90945313 169.61748047 186.796875 168.20703125 C181.76114472 161.93048254 176.408013 156.00883793 170.9140625 150.13671875 C168.34559533 147.38837521 165.85621934 144.57753794 163.375 141.75 C159.71913626 137.67482572 155.83364763 134.01313558 151.71875 130.40625 C149.76961159 128.68115048 147.85993598 126.94237009 145.96875 125.15625 C138.32707039 117.94412879 130.40773959 111.30155836 122 105 C121.31808594 104.48824219 120.63617187 103.97648437 119.93359375 103.44921875 C88.22657124 79.79842701 53.38022454 60.98658791 16 48 C15.19175781 47.71817871 14.38351562 47.43635742 13.55078125 47.14599609 C-70.81829723 18.15755423 -165.81161355 20.59609958 -250 49 Z " fill="#010000" transform="translate(632,74)"/>
<path d="M0 0 C4.06810991 3.85321886 7.37971556 7.98608308 10.6875 12.5 C11.75047861 13.9368075 12.81429229 15.37299755 13.87890625 16.80859375 C14.40500488 17.51870605 14.93110352 18.22881836 15.47314453 18.96044922 C17.24970406 21.33355096 19.07008271 23.66886908 20.90112305 26 C52.81522628 66.74411743 73.66625934 117.04364189 82 168 C82.18191895 169.06283203 82.36383789 170.12566406 82.55126953 171.22070312 C85.48337433 188.89760205 86.37713103 206.28170701 86.375 224.1875 C86.37681274 225.16707672 86.37862549 226.14665344 86.38049316 227.15591431 C86.37676235 244.94203052 85.15961226 262.56496267 82.25 280.125 C81.99621582 281.66921631 81.99621582 281.66921631 81.73730469 283.24462891 C72.08702725 340.10927437 51.13509227 392.54852124 20 441 C19.49597656 441.83144531 18.99195313 442.66289063 18.47265625 443.51953125 C14.65804944 449.65607264 9.79887542 454.73141255 4.8515625 459.95703125 C2.59930712 462.33800796 0.45921392 464.78166881 -1.625 467.3125 C-2.40875 468.199375 -3.1925 469.08625 -4 470 C-4.66 470 -5.32 470 -6 470 C-6.33 470.99 -6.66 471.98 -7 473 C-8.53125 474.5078125 -8.53125 474.5078125 -10.5 476.125 C-13.60043476 478.74632673 -16.48531284 481.46121431 -19.3125 484.375 C-24.22559739 489.33831644 -29.54101096 493.65509036 -35 498 C-36.14690211 498.93619219 -37.29268747 499.87375373 -38.4375 500.8125 C-84.95580585 538.78994486 -139.84705666 563.86284869 -198 578 C-198.92135742 578.22413574 -199.84271484 578.44827148 -200.79199219 578.67919922 C-213.72541095 581.75798623 -226.79838341 583.52129442 -240 585 C-241.32088623 585.15879639 -241.32088623 585.15879639 -242.66845703 585.32080078 C-257.26074811 587.03898247 -271.82623991 587.18337421 -286.5 587.1875 C-287.45386597 587.18849701 -288.40773193 587.18949402 -289.39050293 587.19052124 C-292.14582937 587.19019499 -294.9009573 587.18110995 -297.65625 587.16796875 C-298.47937683 587.16676025 -299.30250366 587.16555176 -300.15057373 587.16430664 C-305.18071025 587.12397143 -310.01952261 586.71368333 -315 586 C-314.48050781 584.91203125 -313.96101563 583.8240625 -313.42578125 582.703125 C-313.09126953 581.99704102 -312.75675781 581.29095703 -312.41210938 580.56347656 C-311.67384134 579.0102288 -310.9289455 577.46011539 -310.17773438 575.91308594 C-308.01791209 571.40815332 -306.41073885 567.05251524 -305 562.25 C-303.46118841 558.56284755 -302.62336645 557.31168323 -299.015625 555.5078125 C-296.32469061 554.69829904 -293.67332057 553.97323011 -290.94921875 553.3046875 C-259.10753596 545.41759719 -229.07720225 526.69143754 -204 506 C-203.44425293 505.5472168 -202.88850586 505.09443359 -202.31591797 504.62792969 C-187.81207998 492.76913043 -174.39647804 479.70556707 -163.2265625 464.63671875 C-161.22533122 461.96628592 -159.13106827 459.36844085 -157.0625 456.75 C-147.1886613 443.97081483 -138.46266845 430.31704107 -131 416 C-130.63841797 415.3095459 -130.27683594 414.6190918 -129.90429688 413.90771484 C-104.45741366 364.59596364 -94.6042263 304.97178457 -103 250 C-103.12890625 249.13197754 -103.2578125 248.26395508 -103.390625 247.36962891 C-108.33986606 215.03344168 -119.2449691 187.29825814 -140 162 C-141.33524816 160.334867 -142.66931625 158.66878288 -144 157 C-139.77351182 156.84630952 -136.14466606 156.86658254 -132.0625 157.98828125 C-125.88916154 159.41499708 -119.74681811 159.34179827 -113.4375 159.3125 C-112.19331299 159.30758545 -110.94912598 159.3026709 -109.66723633 159.29760742 C-78.64725793 158.90331137 -50.39506834 146.21625017 -28.77050781 124.17333984 C-24.27134918 119.44704171 -20.3891841 114.58962452 -17 109 C-16.35804688 107.99066406 -15.71609375 106.98132813 -15.0546875 105.94140625 C-5.62440265 90.43342832 -0.90536188 73.81184925 2 56 C2.19335938 54.86046875 2.38671875 53.7209375 2.5859375 52.546875 C4.39582605 37.04330138 2.67653714 21.549784 0.27539062 6.21630859 C0 4 0 4 0 0 Z " fill="#FEC92C" transform="translate(797,297)"/>
<path d="M0 0 C1.44212105 0.07859001 1.44212105 0.07859001 2.91337585 0.1587677 C13.39695533 0.7723333 23.83369997 1.79212625 34.26953125 2.94921875 C35.26116272 3.05809418 36.25279419 3.1669696 37.2744751 3.27914429 C92.66942287 9.42374465 147.12728078 23.35380509 196.95703125 48.76171875 C194.04045523 50.70610277 191.61883674 51.66343555 188.33203125 52.82421875 C158.3571678 64.26067944 135.6837106 85.37437067 121.99755859 114.40332031 C110.93675544 139.47309001 108.65143881 165.38290667 112.51953125 192.36328125 C112.88738125 195.22068747 113.04510057 197.88845704 112.95703125 200.76171875 C112.23644531 200.3234375 111.51585937 199.88515625 110.7734375 199.43359375 C102.79431477 194.72083459 94.61648506 190.53723507 86.26953125 186.51171875 C85.22547119 186.00479492 84.18141113 185.49787109 83.10571289 184.97558594 C76.51286739 181.82698134 69.87224111 179.11954609 62.95703125 176.76171875 C62.66513916 177.36588623 62.37324707 177.97005371 62.07250977 178.5925293 C60.60137278 181.45334176 58.76234509 183.95532633 56.89453125 186.57421875 C48.3467076 198.74897001 41.17706493 211.77248559 33.95703125 224.76171875 C34.76140625 225.71046875 35.56578125 226.65921875 36.39453125 227.63671875 C37.214375 228.60544922 37.214375 228.60544922 38.05078125 229.59375 C39.36363099 231.08684756 40.72135316 232.54127171 42.11328125 233.9609375 C52.4281041 244.64667008 58.8879825 258.24365694 59.33203125 273.19921875 C59.00536586 284.67334043 56.24179798 294.17969954 48.22265625 302.578125 C44.66096065 305.84826587 41.63296615 307.34974402 36.95703125 308.76171875 C52.9482421 309.63291062 65.63153739 307.02305367 78.109375 296.4296875 C90.3139723 284.99520197 95.80336963 267.95619773 96.390625 251.52734375 C96.41367708 249.02224114 96.41448218 246.51684798 96.39453125 244.01171875 C96.3884082 242.69929199 96.38228516 241.38686523 96.37597656 240.03466797 C96.16390904 226.82938643 94.38087309 215.4198021 87.95703125 203.76171875 C88.28703125 203.10171875 88.61703125 202.44171875 88.95703125 201.76171875 C105.2567227 218.8888057 110.69232976 238.91385901 110.26953125 262.140625 C109.40400498 283.40732668 99.88425307 304.17311855 84.37890625 318.76953125 C72.48935291 328.54964771 57.85075643 333.70249068 42.4921875 333.12109375 C37.09858491 332.57279382 32.10512919 331.44139477 26.95703125 329.76171875 C26.10625 329.49488281 25.25546875 329.22804688 24.37890625 328.953125 C9.02792452 323.52235316 -0.62131702 312.32253216 -7.60620117 298.16992188 C-10.04296875 293.06162122 -10.04296875 293.06162122 -10.04296875 290.76171875 C-10.58824219 290.98988281 -11.13351562 291.21804688 -11.6953125 291.453125 C-18.0815307 293.88752955 -23.60082801 294.69803651 -30.0234375 291.8984375 C-33.2199945 290.13317468 -36.19369041 288.04114142 -39.04296875 285.76171875 C-39.24921875 286.33921875 -39.45546875 286.91671875 -39.66796875 287.51171875 C-41.64468631 290.74634749 -43.68510976 292.02060668 -47.04296875 293.76171875 C-51.35644794 294.44192124 -55.32546027 294.24005774 -59.04296875 291.76171875 C-59.08421875 292.66921875 -59.12546875 293.57671875 -59.16796875 294.51171875 C-60.60710585 304.2308227 -66.49346299 312.74907666 -74.04296875 318.76171875 C-87.9306294 328.84903983 -104.29781001 331.08446375 -121.04296875 329.76171875 C-136.95290324 326.97190058 -150.26854055 318.71071279 -160.1796875 306.02734375 C-171.011111 289.76846075 -175.28511026 271.6275274 -171.91796875 252.38671875 C-169.26642385 240.31160818 -164.37953736 224.24450085 -155.04296875 215.76171875 C-153.2880767 217.5166108 -153.8505606 220.00886604 -153.796875 222.39453125 C-153.7498645 224.17609619 -153.7498645 224.17609619 -153.7019043 225.99365234 C-153.67008057 227.27836426 -153.63825684 228.56307617 -153.60546875 229.88671875 C-153.3140286 268.49453502 -153.3140286 268.49453502 -135.56640625 301.5 C-131.47348278 305.16842521 -127.05044876 307.55638962 -122.04296875 309.76171875 C-121.27984375 310.10074219 -120.51671875 310.43976563 -119.73046875 310.7890625 C-112.80773508 313.4716218 -105.19501527 313.82897695 -98.04296875 311.76171875 C-98.80480469 311.61476563 -99.56664062 311.4678125 -100.3515625 311.31640625 C-111.51995022 308.89031454 -119.36700457 304.13470587 -126.04296875 294.76171875 C-133.70738503 282.17743844 -134.99841599 267.38335262 -132.35546875 253.02734375 C-130.72506853 247.34811633 -128.64460233 243.18762411 -125.23046875 238.38671875 C-123.55372489 235.75109571 -123.55372489 235.75109571 -123.04296875 232.76171875 C-124.77886751 227.91024926 -127.52654684 224.05506232 -130.53417969 219.90380859 C-132.67239309 216.86809914 -134.58597234 213.70778528 -136.52490234 210.54248047 C-143.75348484 198.78934939 -151.64708569 187.90005579 -161.04296875 177.76171875 C-168.56134887 180.03929931 -175.40643801 183.17273373 -182.41796875 186.69921875 C-183.56265625 187.27478516 -184.70734375 187.85035156 -185.88671875 188.44335938 C-208.09687764 199.78445281 -228.45013008 214.17664216 -247.04296875 230.76171875 C-247.98785156 231.59574219 -248.93273437 232.42976562 -249.90625 233.2890625 C-251.95897089 235.1055449 -254.00505035 236.92867045 -256.04296875 238.76171875 C-257.04296875 236.76171875 -257.04296875 236.76171875 -256.22949219 234.22167969 C-255.7915332 233.15723633 -255.35357422 232.09279297 -254.90234375 230.99609375 C-254.17059937 229.21247437 -254.17059937 229.21247437 -253.42407227 227.39282227 C-252.88141288 226.09868376 -252.33768592 224.80499246 -251.79296875 223.51171875 C-251.519758 222.85823456 -251.24654724 222.20475037 -250.96505737 221.53146362 C-227.22638911 164.8651049 -189.27969514 110.6169821 -140.96484375 72.09375 C-138.74471888 70.32180542 -136.55257309 68.5293963 -134.37109375 66.7109375 C-125.27545049 59.15780397 -115.92877652 52.24305135 -106.04296875 45.76171875 C-105.32834473 45.28911621 -104.6137207 44.81651367 -103.87744141 44.32958984 C-76.81892879 26.51463155 -47.74917827 12.13203414 -17.04296875 1.76171875 C-15.46153076 1.20327271 -15.46153076 1.20327271 -13.84814453 0.63354492 C-9.08153227 -0.45856161 -4.85368379 -0.30125605 0 0 Z " fill="#FEC92D" transform="translate(401.04296875,120.23828125)"/>
<path d="M0 0 C1.83425537 0.01244751 1.83425537 0.01244751 3.70556641 0.02514648 C20.76759316 0.3421126 37.68866243 4.10863497 50.8203125 15.78515625 C52.88454441 18.1708669 54.53983033 20.79150787 56.25 23.4375 C54.90421875 23.45876953 54.90421875 23.45876953 53.53125 23.48046875 C31.33439383 24.3289023 11.63097924 33.46406822 -3.75 49.4375 C-4.54792969 50.22769531 -5.34585937 51.01789062 -6.16796875 51.83203125 C-30.7219891 77.31580797 -38.0514057 116.41619131 -45.12451172 149.76904297 C-52.14051548 182.45539006 -66.01904658 208.44808917 -94.2890625 227.25 C-95.44000001 227.9834341 -96.59373019 228.71250147 -97.75 229.4375 C-98.35295898 229.81648437 -98.95591797 230.19546875 -99.57714844 230.5859375 C-107.15956982 235.27139436 -114.91111725 239.15452948 -123.25 242.3125 C-123.95979004 242.58658691 -124.66958008 242.86067383 -125.40087891 243.14306641 C-138.78912768 247.94566466 -152.40523791 248.99135114 -166.5 248.875 C-167.28581451 248.87195862 -168.07162903 248.86891724 -168.8812561 248.86578369 C-181.19817629 248.79545577 -192.8943565 248.0316834 -204.75 244.4375 C-205.49185547 244.21787598 -206.23371094 243.99825195 -206.99804688 243.77197266 C-226.8168381 237.74183656 -246.55295058 227.18363777 -256.71386719 208.30517578 C-258.18312679 205.39421503 -259.48010617 202.44188296 -260.75 199.4375 C-261.11222656 198.59058594 -261.47445312 197.74367188 -261.84765625 196.87109375 C-267.84954154 179.47958427 -263.69505751 160.07970995 -255.9375 144.125 C-252.82226921 138.02313561 -249.37676875 132.52694563 -244.75 127.4375 C-244.16992188 126.78910156 -243.58984375 126.14070312 -242.9921875 125.47265625 C-239.15071977 121.41420185 -234.95547432 117.982142 -230.5 114.625 C-215.01434651 102.94429066 -201.54771718 88.80466402 -189.75 73.4375 C-187.92136071 71.10047504 -186.08519276 68.76938051 -184.25 66.4375 C-183.30458057 65.23445902 -182.35926627 64.03133542 -181.4140625 62.828125 C-180.7339209 61.9628418 -180.7339209 61.9628418 -180.04003906 61.08007812 C-178.88702408 59.61196972 -177.73632396 58.14204398 -176.5859375 56.671875 C-171.87409007 50.70228344 -166.9384908 44.99780447 -161.75 39.4375 C-160.50089844 38.07238281 -160.50089844 38.07238281 -159.2265625 36.6796875 C-143.65025802 20.2811734 -122.48946434 10.27192914 -99.79296875 9.3125 C-91.62171988 9.15441054 -83.80005695 10.0857663 -75.75 11.4375 C-78.16868813 13.86903072 -80.59338455 16.28799147 -83.07421875 18.65625 C-104.87015505 39.69563314 -117.23841681 67.79706677 -130.125 94.75 C-139.94376608 115.2578614 -150.82661667 134.08579782 -166.75 150.4375 C-167.3171875 151.07816406 -167.884375 151.71882812 -168.46875 152.37890625 C-174.17010671 158.64748978 -181.66452834 162.90535146 -188.75 167.4375 C-171.6797167 167.4375 -151.32924436 148.60853681 -139.75 137.4375 C-136.49016373 133.93950217 -133.58135323 130.2877114 -130.75 126.4375 C-130.04875 125.51195312 -129.3475 124.58640625 -128.625 123.6328125 C-119.15369972 110.60977461 -111.80452767 96.08458123 -105.0625 81.5 C-89.94127747 48.91075198 -64.82519174 17.63918697 -30.40625 4.54296875 C-20.18894194 1.45376129 -10.68548868 -0.09427936 0 0 Z " fill="#F4000B" transform="translate(508.75,689.5625)"/>
<path d="M0 0 C2.62774791 2.0222166 5.16897592 4.12423343 7.70361328 6.26293945 C8.59693359 7.01575195 9.49025391 7.76856445 10.41064453 8.54418945 C33.66473497 28.83347266 48.42691358 57.6796282 51.46142578 88.45825195 C53.14780977 114.95080043 47.30207713 137.04944282 29.70361328 157.26293945 C29.18541016 157.8765332 28.66720703 158.49012695 28.13330078 159.12231445 C14.57580738 173.97424189 -6.58492919 181.32714731 -26.19042969 182.49487305 C-55.81867816 183.71488511 -81.30791404 180.52191307 -104.05029297 159.74731445 C-108.33747529 155.57870049 -112.40191987 151.52560646 -115.29638672 146.26293945 C-115.29638672 145.60293945 -115.29638672 144.94293945 -115.29638672 144.26293945 C-107.63918486 142.04329029 -99.98116517 139.82649498 -92.3220768 137.61336517 C-88.76590288 136.58569418 -85.21002171 135.5570326 -81.65478516 134.52612305 C-78.22548518 133.53177043 -74.79544847 132.53999921 -71.36487961 131.55003357 C-70.05445001 131.17138522 -68.7442912 130.79179844 -67.43440628 130.41127014 C-65.60346895 129.87954506 -63.77148512 129.35142747 -61.93945312 128.82348633 C-60.89576569 128.52148315 -59.85207825 128.21947998 -58.77676392 127.9083252 C-56.29638672 127.26293945 -56.29638672 127.26293945 -54.29638672 127.26293945 C-53.71888672 128.17043945 -53.14138672 129.07793945 -52.54638672 130.01293945 C-49.54080465 134.35433577 -46.28473866 136.60015547 -41.29638672 138.26293945 C-27.34089635 139.61817453 -15.45664976 138.59139803 -4.29638672 129.45043945 C-0.49617915 125.78767158 1.93832332 122.22720792 3.70361328 117.26293945 C3.92662109 116.63774414 4.14962891 116.01254883 4.37939453 115.3684082 C6.89855525 106.95406867 6.90859405 97.13646312 2.70361328 89.26293945 C-0.53005812 87.10715852 -1.54200376 86.65646221 -5.29638672 87.26293945 C-7.26140905 89.21570569 -7.26140905 89.21570569 -8.92138672 91.82543945 C-17.94744281 103.79257 -33.024825 109.36140016 -47.46435547 111.59887695 C-73.76349382 115.04336587 -100.55340033 106.07581177 -121.79638672 90.76293945 C-134.84011449 80.45699946 -143.25596964 65.92971264 -145.29638672 49.26293945 C-146.6416056 29.1287618 -140.05660873 13.73238601 -127.65185547 -1.7956543 C-118.5238729 -11.8017719 -106.10970009 -17.29769748 -93.29638672 -20.73706055 C-92.15427734 -21.05545898 -91.01216797 -21.37385742 -89.83544922 -21.7019043 C-59.60368394 -29.20796044 -24.58072871 -18.18295641 0 0 Z " fill="#000000" transform="translate(718.29638671875,217.737060546875)"/>
<path d="M0 0 C5.29367929 3.07620377 8.80058412 7.22021029 11.0625 12.875 C11.26875 13.720625 11.475 14.56625 11.6875 15.4375 C10.40875 15.334375 9.13 15.23125 7.8125 15.125 C-5.21439162 15.18615912 -16.06873361 26.77342593 -24.70385742 35.38769531 C-39.27728101 50.55542932 -49.17328813 70.19650653 -59.3125 88.4375 C-58.508125 89.38625 -57.70375 90.335 -56.875 91.3125 C-56.3284375 91.95832031 -55.781875 92.60414063 -55.21875 93.26953125 C-53.90590026 94.76262881 -52.54817809 96.21705296 -51.15625 97.63671875 C-40.84142715 108.32245133 -34.38154875 121.91943819 -33.9375 136.875 C-34.26416539 148.34912168 -37.02773327 157.85548079 -45.046875 166.25390625 C-48.6085706 169.52404712 -51.6365651 171.02552527 -56.3125 172.4375 C-40.32128915 173.30869187 -27.63799386 170.69883492 -15.16015625 160.10546875 C-2.95555895 148.67098322 2.53383838 131.63197898 3.12109375 115.203125 C3.14414583 112.69802239 3.14495093 110.19262923 3.125 107.6875 C3.11887695 106.37507324 3.11275391 105.06264648 3.10644531 103.71044922 C2.89437779 90.50516768 1.11134184 79.09558335 -5.3125 67.4375 C-4.9825 66.7775 -4.6525 66.1175 -4.3125 65.4375 C11.98719145 82.56458695 17.42279851 102.58964026 17 125.81640625 C16.13447373 147.08310793 6.61472182 167.8488998 -8.890625 182.4453125 C-20.78017834 192.22542896 -35.41877482 197.37827193 -50.77734375 196.796875 C-56.17094634 196.24857507 -61.16440206 195.11717602 -66.3125 193.4375 C-67.16328125 193.17066406 -68.0140625 192.90382813 -68.890625 192.62890625 C-84.24160673 187.19813441 -93.89084827 175.99831341 -100.87573242 161.84570312 C-103.3125 156.73740247 -103.3125 156.73740247 -103.3125 154.4375 C-103.85777344 154.66566406 -104.40304687 154.89382813 -104.96484375 155.12890625 C-111.35106195 157.5633108 -116.87035926 158.37381776 -123.29296875 155.57421875 C-126.48952575 153.80895593 -129.46322166 151.71692267 -132.3125 149.4375 C-132.51875 150.015 -132.725 150.5925 -132.9375 151.1875 C-134.91421756 154.42212874 -136.95464101 155.69638793 -140.3125 157.4375 C-144.62597919 158.11770249 -148.59499152 157.91583899 -152.3125 155.4375 C-152.35375 156.345 -152.395 157.2525 -152.4375 158.1875 C-153.8766371 167.90660395 -159.76299424 176.42485791 -167.3125 182.4375 C-181.20016065 192.52482108 -197.56734126 194.760245 -214.3125 193.4375 C-230.22243449 190.64768183 -243.5380718 182.38649404 -253.44921875 169.703125 C-264.28064225 153.444242 -268.55464151 135.30330865 -265.1875 116.0625 C-262.5359551 103.98738943 -257.64906861 87.9202821 -248.3125 79.4375 C-246.55760795 81.19239205 -247.12009185 83.68464729 -247.06640625 86.0703125 C-247.03506592 87.25802246 -247.00372559 88.44573242 -246.97143555 89.66943359 C-246.93961182 90.95414551 -246.90778809 92.23885742 -246.875 93.5625 C-246.58355985 132.17031627 -246.58355985 132.17031627 -228.8359375 165.17578125 C-224.74301403 168.84420646 -220.31998001 171.23217087 -215.3125 173.4375 C-214.1678125 173.94603516 -214.1678125 173.94603516 -213 174.46484375 C-206.07726633 177.14740305 -198.46454652 177.5047582 -191.3125 175.4375 C-192.07433594 175.29054688 -192.83617187 175.14359375 -193.62109375 174.9921875 C-204.78948147 172.56609579 -212.63653582 167.81048712 -219.3125 158.4375 C-226.97691628 145.85321969 -228.26794724 131.05913387 -225.625 116.703125 C-223.99459978 111.02389758 -221.91413358 106.86340536 -218.5 102.0625 C-216.82325614 99.42687696 -216.82325614 99.42687696 -216.3125 96.4375 C-218.04839876 91.58603051 -220.79607809 87.73084357 -223.80371094 83.57958984 C-225.94192434 80.54388039 -227.85550359 77.38356653 -229.79443359 74.21826172 C-234.87808521 65.95262682 -240.21661187 57.99731624 -246.3125 50.4375 C-246.98925781 49.59574219 -247.66601562 48.75398438 -248.36328125 47.88671875 C-253.6659749 41.59556182 -258.76101099 36.63617868 -267.1875 35.625 C-269.23777414 35.49283947 -271.25847604 35.4375 -273.3125 35.4375 C-272.90959958 29.79689411 -271.09335674 27.40278877 -267.3125 23.4375 C-263.45399777 21.50824889 -259.72767787 22.0689641 -255.6875 23.12109375 C-249.29063286 25.26226733 -244.48268533 28.16965834 -239.3125 32.4375 C-238.3225 33.0975 -237.3325 33.7575 -236.3125 34.4375 C-236.456875 33.43589844 -236.60125 32.43429687 -236.75 31.40234375 C-236.93775007 30.05993078 -237.12523594 28.71748085 -237.3125 27.375 C-237.40789062 26.71822266 -237.50328125 26.06144531 -237.6015625 25.38476562 C-238.20137674 21.03611237 -238.40377093 16.82420929 -238.3125 12.4375 C-236.57788315 15.03942527 -235.25931953 17.5021064 -233.9140625 20.3125 C-227.47184933 33.59963325 -220.53485639 46.17572511 -212.3125 58.4375 C-211.79574707 59.21399902 -211.27899414 59.99049805 -210.74658203 60.79052734 C-199.62747198 77.45379198 -188.09927634 93.88662997 -174.73730469 108.84082031 C-173.315984 110.43359572 -171.91165527 112.04025652 -170.5078125 113.6484375 C-159.97870072 125.66798043 -159.97870072 125.66798043 -146.3125 133.4375 C-146.50585938 132.90382813 -146.69921875 132.37015625 -146.8984375 131.8203125 C-151.65294328 118.21583557 -152.64256883 104.66024013 -150.3125 90.4375 C-149.6525 90.4375 -148.9925 90.4375 -148.3125 90.4375 C-148.16554688 91.39269531 -148.01859375 92.34789062 -147.8671875 93.33203125 C-146.01699802 103.99720393 -143.3466817 114.41939766 -134.2265625 121.26953125 C-130.69598623 123.4239033 -127.49924879 125.15549101 -123.3125 125.4375 C-120.09389109 124.38055422 -117.8281891 122.67469953 -115.3125 120.4375 C-114.81572754 119.99849365 -114.31895508 119.5594873 -113.80712891 119.10717773 C-108.19297101 113.85380428 -104.12643604 107.65186893 -99.9375 101.25 C-99.1494986 100.05837508 -98.36141089 98.86680723 -97.57324219 97.67529297 C-91.65509024 88.68321916 -86.0417818 79.5196966 -80.49951172 70.29281616 C-46.87134027 14.33089114 -46.87134027 14.33089114 -22.3125 1.4375 C-21.7040625 1.08300781 -21.095625 0.72851562 -20.46875 0.36328125 C-14.25173533 -2.87719102 -6.34683925 -2.82081744 0 0 Z " fill="#020101" transform="translate(494.3125,256.5625)"/>
<path d="M0 0 C0.33 0 0.66 0 1 0 C1.17663037 11.10154554 0.70165987 22.0087665 -0.3125 33.0625 C-0.38102173 33.82512146 -0.44954346 34.58774292 -0.5201416 35.37347412 C-0.98975884 40.58470623 -1.48619189 45.79295243 -2 51 C-2.10683105 52.09328613 -2.21366211 53.18657227 -2.32373047 54.31298828 C-5.01213395 80.61872938 -11.27172545 106.75284361 -19 132 C-19.27279785 132.90073242 -19.5455957 133.80146484 -19.82666016 134.72949219 C-30.12491856 168.33562977 -46.09760211 200.48578479 -67.71191406 228.25268555 C-69.05447024 230.0157089 -69.05447024 230.0157089 -70.24902344 232.08520508 C-73.75814951 237.62062976 -77.01881869 239.21791317 -83.34790039 240.68432617 C-84.38809326 240.89162354 -85.42828613 241.0989209 -86.5 241.3125 C-88.12119751 241.67275269 -88.12119751 241.67275269 -89.77514648 242.0402832 C-91.90692229 242.51061494 -94.04159415 242.96804752 -96.17919922 243.41113281 C-98.42075932 243.87907837 -100.65209023 244.39596926 -102.87890625 244.9296875 C-113.76375403 247.52068194 -124.89943941 248.73022103 -136 250 C-136.8878418 250.10731445 -137.77568359 250.21462891 -138.69042969 250.32519531 C-153.27489607 252.04133536 -167.83427859 252.18337647 -182.5 252.1875 C-183.93079895 252.18899551 -183.93079895 252.18899551 -185.39050293 252.19052124 C-188.14582937 252.19019499 -190.9009573 252.18110995 -193.65625 252.16796875 C-194.47937683 252.16676025 -195.30250366 252.16555176 -196.15057373 252.16430664 C-201.18071025 252.12397143 -206.01952261 251.71368333 -211 251 C-210.48050781 249.91203125 -209.96101563 248.8240625 -209.42578125 247.703125 C-209.09126953 246.99704102 -208.75675781 246.29095703 -208.41210938 245.56347656 C-207.67384134 244.0102288 -206.9289455 242.46011539 -206.17773438 240.91308594 C-204.01791209 236.40815332 -202.41073885 232.05251524 -201 227.25 C-199.46118841 223.56284755 -198.62336645 222.31168323 -195.015625 220.5078125 C-192.32469061 219.69829904 -189.67332057 218.97323011 -186.94921875 218.3046875 C-155.10753596 210.41759719 -125.07720225 191.69143754 -100 171 C-99.44425293 170.5472168 -98.88850586 170.09443359 -98.31591797 169.62792969 C-83.81207998 157.76913043 -70.39647804 144.70556707 -59.2265625 129.63671875 C-57.22533122 126.96628592 -55.13106827 124.36844085 -53.0625 121.75 C-43.1886613 108.97081483 -34.46266845 95.31704107 -27 81 C-26.63841797 80.3095459 -26.27683594 79.6190918 -25.90429688 78.90771484 C-13.19796207 54.28498933 -4.57460792 27.29887976 0 0 Z " fill="#FDFDFD" transform="translate(693,632)"/>
<path d="M0 0 C0.9897583 -0.00349457 1.9795166 -0.00698914 2.99926758 -0.0105896 C20.49272992 -0.04481594 37.97889535 0.76397181 55.1875 4.125 C56.51418701 4.3739502 56.51418701 4.3739502 57.86767578 4.62792969 C67.71667871 6.52364101 77.45812904 8.88513138 87.1875 11.3125 C86.33703384 15.34790812 84.38742901 18.00936065 81.9375 21.25 C73.77358455 32.37489792 66.80535707 44.28759265 59.703125 56.10546875 C34.37151178 98.18982548 34.37151178 98.18982548 19.9375 107.8125 C14.74457532 108.75666812 10.65638011 105.7713837 6.296875 103.1953125 C-0.30161471 98.40992131 -4.51823743 89.35793035 -6.50390625 81.6171875 C-6.92062762 78.5049646 -6.87397224 75.44758421 -6.8125 72.3125 C-7.4725 72.3125 -8.1325 72.3125 -8.8125 72.3125 C-9.32116711 87.80532629 -8.73304516 101.55086453 -3.8125 116.3125 C-17.33846524 112.52998264 -28.02800812 98.78017637 -36.51171875 88.171875 C-38.80954973 85.31616655 -41.18069499 82.53582687 -43.5625 79.75 C-87.8125 26.52764977 -87.8125 26.52764977 -87.8125 11.3125 C-81.09998186 9.83842297 -74.38437811 8.37933639 -67.66601562 6.93212891 C-65.39423864 6.4388221 -63.12619945 5.93332285 -60.859375 5.41796875 C-57.19079354 4.62026557 -53.51438166 3.93217204 -49.8125 3.3125 C-49.01924316 3.17569824 -48.22598633 3.03889648 -47.40869141 2.89794922 C-31.63581919 0.30950562 -15.94393755 0.01804252 0 0 Z " fill="#FEFEFE" transform="translate(352.8125,274.6875)"/>
<path d="M0 0 C9.29651789 22.71383271 20.21929481 53.34668675 12.01953125 77.87109375 C8.51541997 85.18810773 0.14372023 87.44355162 -7 90 C-25.9666037 96.4396415 -45.80703537 100.07839151 -65.84765625 100.015625 C-66.5379895 100.01449707 -67.22832275 100.01336914 -67.9395752 100.01220703 C-69.62638584 100.00928741 -71.31319367 100.00480458 -73 100 C-76.17823211 82.81349011 -79.19309521 65.65560815 -80.875 48.25 C-81.05446167 46.42746704 -81.05446167 46.42746704 -81.23754883 44.56811523 C-82.00072106 36.01929368 -82.12198294 27.5749487 -82 19 C-81.31301025 18.91024902 -80.62602051 18.82049805 -79.91821289 18.72802734 C-56.35451811 15.59140954 -34.05962522 10.71260627 -11.59179688 2.89575195 C-10.51220703 2.52023193 -9.43261719 2.14471191 -8.3203125 1.7578125 C-7.36398926 1.4189502 -6.40766602 1.08008789 -5.42236328 0.73095703 C-3 0 -3 0 0 0 Z " fill="#FDFEFD" transform="translate(480,575)"/>
<path d="M0 0 C3.7286862 1.2428954 3.92532796 2.16642642 5.70703125 5.56640625 C6.45907837 6.99460693 6.45907837 6.99460693 7.22631836 8.45166016 C7.7497583 9.4782373 8.27319824 10.50481445 8.8125 11.5625 C9.35076416 12.61228027 9.88902832 13.66206055 10.44360352 14.74365234 C20.66511194 34.98220805 32.14149526 63.82117223 26.0625 86.75 C19.31156069 103.50347782 -2.5035215 113.95139079 -18 121 C-25.41032503 124.07160294 -32.95262856 126.50730379 -41 127 C-42.63294713 119.27835397 -43.90457948 111.52364805 -45.09375 103.72265625 C-45.38203674 101.85195717 -45.38203674 101.85195717 -45.67614746 99.94346619 C-46.18324041 96.65185375 -46.68858746 93.35998471 -47.19281006 90.06793213 C-47.90134058 85.44242302 -48.61153803 80.81717344 -49.32385254 76.19224548 C-49.70157425 73.73932063 -50.0778813 71.28617736 -50.45251465 68.83277893 C-51.71652143 60.61801824 -53.02222465 52.41395732 -54.8203125 44.296875 C-53.35990791 38.4274394 -47.81314389 36.24808056 -42.875 33.25 C-40.65358106 31.83752206 -38.43481468 30.4208636 -36.21875 29 C-35.14238281 28.31550781 -34.06601562 27.63101563 -32.95703125 26.92578125 C-26.9741742 23.02941596 -21.45744354 18.59223907 -16 14 C-15.37319336 13.47325684 -14.74638672 12.94651367 -14.10058594 12.40380859 C-6.87233631 6.39728536 -6.87233631 6.39728536 0 0 Z " fill="#FDFDFD" transform="translate(551,524)"/>
<path d="M0 0 C0.58048096 0.18103271 1.16096191 0.36206543 1.7590332 0.54858398 C8.51651642 2.62008032 15.31898898 4.39959733 22.1875 6.0625 C23.20908203 6.31837891 24.23066406 6.57425781 25.28320312 6.83789062 C38.92564565 10.1443767 52.46224452 11.30719246 66.4375 11.625 C67.86264989 11.66333756 69.28778055 11.70239727 70.71289062 11.7421875 C74.14174717 11.8363979 77.57075471 11.92101916 81 12 C81.05945801 12.94576904 81.05945801 12.94576904 81.12011719 13.91064453 C82.65862159 37.60446229 85.22699204 61.16232493 90.265625 84.38671875 C91 88 91 88 91 91 C69.07522434 96.21543508 35.87841289 93.81666448 16 83 C3.35457261 72.19869743 0.99831286 47.04664655 -0.7265625 31.44140625 C-2.67732287 5.35464574 -2.67732287 5.35464574 0 0 Z " fill="#FDFDFD" transform="translate(302,584)"/>
<path d="M0 0 C5.31587023 1.44191778 8.92579735 4.08455342 12.5625 8.1875 C14.50994072 12.2381767 14.15772874 15.19787673 13.125 19.4375 C11.92119582 22.02147966 10.75774664 24.24335083 9.25 26.625 C8.85216309 27.26864502 8.45432617 27.91229004 8.04443359 28.57543945 C3.69695322 35.41427647 -1.4575813 41.43553561 -6.875 47.4375 C-7.78315554 48.46691586 -8.69071278 49.49685987 -9.59765625 50.52734375 C-33.14598409 77.02982375 -70.32262409 106.16236831 -106.875 110.4375 C-109.89754011 110.56790235 -112.84707584 110.53362458 -115.875 110.4375 C-117.00966456 92.5770393 -111.01585493 72.68624561 -100.3125 58.34375 C-94.20399769 52.12212728 -85.12676463 49.52183219 -77.171875 46.40869141 C-74.22765694 45.16378288 -71.45619296 43.66475179 -68.68164062 42.08081055 C-66.32228542 41.2406888 -65.17898196 41.5029402 -62.875 42.4375 C-61.04586438 44.50936451 -59.42556398 46.52266578 -57.8125 48.75 C-57.37873047 49.33201172 -56.94496094 49.91402344 -56.49804688 50.51367188 C-55.28164746 52.14849787 -54.07794029 53.79274524 -52.875 55.4375 C-51.87644592 56.77191655 -50.87676237 58.10549027 -49.875 59.4375 C-49.94569702 58.34864502 -49.94569702 58.34864502 -50.01782227 57.23779297 C-50.20557426 53.93008335 -50.32212805 50.62349182 -50.4375 47.3125 C-50.51291016 46.17039062 -50.58832031 45.02828125 -50.66601562 43.8515625 C-50.88315021 35.552196 -50.88315021 35.552196 -48.07543945 32.44775391 C-45.74380398 30.88640632 -43.40484843 29.64710534 -40.875 28.4375 C-39.66742498 27.69727786 -38.46950109 26.94091098 -37.28515625 26.1640625 C-36.18042969 25.47054687 -35.07570313 24.77703125 -33.9375 24.0625 C-26.73868153 19.46631641 -19.91902551 14.56627352 -13.91015625 8.45703125 C-5.09929759 -0.39423141 -5.09929759 -0.39423141 0 0 Z " fill="#FDFDFD" transform="translate(617.875,714.5625)"/>
<path d="M0 0 C10.78190581 4.74497816 16.64356568 18.22241124 20.72827148 28.55444336 C29.16790505 50.98277531 35.83340523 77.29839429 25.55859375 100.21484375 C19.589514 112.08375638 10.71852953 124.30369741 -1 131 C-7.32906597 114.54861991 -12.69146858 97.8004499 -18 81 C-18.43131016 79.63801927 -18.86262525 78.2760401 -19.29394531 76.9140625 C-20.5363724 72.98657467 -21.76932783 69.05618773 -23 65.125 C-23.37366699 63.93793457 -23.74733398 62.75086914 -24.13232422 61.52783203 C-25.11699913 58.35964848 -26.06469671 55.18304403 -27 52 C-27.27674561 51.13536133 -27.55349121 50.27072266 -27.83862305 49.37988281 C-29.43569113 43.78869634 -29.43569113 43.78869634 -27.39453125 40.09375 C-26.54246094 39.2378125 -25.69039062 38.381875 -24.8125 37.5 C-23.86552624 36.48411893 -22.92709628 35.4602252 -21.99609375 34.4296875 C-21.50222168 33.8840918 -21.00834961 33.33849609 -20.49951172 32.77636719 C-17.81759798 29.5992906 -15.60536281 26.12721935 -13.375 22.625 C-12.91867187 21.90965088 -12.46234375 21.19430176 -11.9921875 20.45727539 C-7.77529554 13.76265733 -3.82902691 6.92296843 0 0 Z " fill="#FDFDFD" transform="translate(595,464)"/>
<path d="M0 0 C5.45939243 1.53002081 9.92282677 4.120113 14.75 7 C16.4550197 8.00120917 18.16076598 9.0011819 19.8671875 10 C20.72666992 10.50402344 21.58615234 11.00804687 22.47167969 11.52734375 C25.53090955 13.30923585 28.60586889 15.05975591 31.69824219 16.78344727 C33.15583559 17.59807131 34.6070385 18.42423093 36.05175781 19.26147461 C40.18691316 21.61760433 44.262448 23.53094619 48.7265625 25.19140625 C59.83750028 29.57072991 59.83750028 29.57072991 64 34 C66.840775 40.65268616 66.03088219 48.2110535 65.92285156 55.29589844 C66.0636134 62.05424843 67.25899506 68.66070254 68.375 75.3125 C68.5960594 76.68208732 68.81636154 78.0517971 69.03588867 79.42163086 C70.43233844 88.04261655 71.99654112 96.62639642 73.83154297 105.1652832 C74.55736006 108.55910119 75 111.50724135 75 115 C56.09557779 112.29936826 37.72904861 98.59572276 25.71875 84.34765625 C8.57894557 60.93624156 0.790793 28.66624613 0 0 Z " fill="#FDFDFD" transform="translate(222,543)"/>
<path d="M0 0 C2.29404463 1.70203311 4.3625883 3.48266461 6.42578125 5.45703125 C7.39837891 6.38708984 7.39837891 6.38708984 8.390625 7.3359375 C14.56173926 13.79408033 17.59260243 20.62707357 17.86328125 29.58203125 C17.55149249 36.9610319 16.31650484 41.98200613 10.92578125 47.20703125 C1.54288649 54.63515627 -9.02464862 55.63917763 -20.57421875 54.45703125 C-30.72820423 51.89566554 -39.71669957 45.56332843 -45.31640625 36.69921875 C-50.09154914 28.13137863 -51.61617928 21.35565631 -50.57421875 11.45703125 C-47.98545182 4.44950697 -42.58155105 -0.06568271 -36.01171875 -3.29296875 C-24.17630858 -7.59675426 -10.86113488 -6.51008844 0 0 Z " fill="#FDFDFD" transform="translate(682.57421875,234.54296875)"/>
<path d="M0 0 C13.15672016 10.63734822 23.32094495 23.86370194 26 41 C27.0091732 52.45624784 25.6318656 63.61145523 18.65234375 73.03125 C13.86725358 78.73263403 9.34598757 82.04946916 1.98046875 83.796875 C-5.2402682 84.28898289 -12.08500282 80.8931436 -18 77 C-18 76.67 -18 76.34 -18 76 C-17.2265625 75.86464844 -16.453125 75.72929687 -15.65625 75.58984375 C-8.1464385 74.03769212 -2.91074816 72.04305099 2 66 C6.70246456 58.06459106 6.2997763 46.78657472 4.30859375 37.921875 C1.61186479 30.56510813 -2.909443 24.5452785 -10 21 C-9.39979564 16.16085239 -7.31530243 12.45154531 -5 8.25 C-4.44699219 7.22326172 -4.44699219 7.22326172 -3.8828125 6.17578125 C-1.16301407 1.16301407 -1.16301407 1.16301407 0 0 Z " fill="#F3010C" transform="translate(434,346)"/>
<path d="M0 0 C5.08995734 4.47299281 8.89201629 9.99003726 12 16 C12 20.76614951 10.6779129 22.18600284 8 26 C5.0842954 34.7471138 7.20355235 43.85368667 11 52 C13.89832489 56.62656039 16.72984226 61.02615815 22 63 C26.82903514 63.68530862 30.85236449 63.519684 35.3125 61.5 C38.73900093 58.31255727 40.69441422 55.06868079 43 51 C45.97 52.65 48.94 54.3 52 56 C47.33833658 65.32332685 39.76985133 73.03416405 30 77 C22.49013349 78.39668476 15.5432015 76.82287836 9 73 C-0.67425331 65.96287648 -6.99752522 57.28657441 -9.52734375 45.53125 C-11.78203269 28.68630125 -9.67536414 14.28728771 0 0 Z " fill="#F3020C" transform="translate(278,354)"/>
<path d="M0 0 C0.33 0 0.66 0 1 0 C0.98952637 0.81976318 0.97905273 1.63952637 0.96826172 2.48413086 C0.66667853 23.22243931 0.66667853 23.22243931 2.5625 43.84765625 C2.94749572 46.62168788 3.08450312 49.20611564 3 52 C1.35 51.01 -0.3 50.02 -2 49 C-1.01 48.505 -1.01 48.505 0 48 C-0.0707373 47.24138672 -0.14147461 46.48277344 -0.21435547 45.70117188 C-0.96625141 36.95327885 -1.15112238 28.27711932 -1.125 19.5 C-1.12857381 18.15624907 -1.13247877 16.81249899 -1.13671875 15.46875 C-1.13542969 14.19 -1.13414062 12.91125 -1.1328125 11.59375 C-1.13168457 10.44583984 -1.13055664 9.29792969 -1.12939453 8.11523438 C-1.01202936 5.28961249 -0.64689782 2.74690671 0 0 Z " fill="#F4B71C" transform="translate(511,269)"/>
<path d="M0 0 C1.75032844 0.14183696 3.50025534 0.28863429 5.25 0.4375 C6.71179688 0.55931641 6.71179688 0.55931641 8.203125 0.68359375 C11 1 11 1 12.671875 1.51367188 C16.11566336 2.23305384 19.54548619 2.12191557 23.046875 2.09765625 C23.81807678 2.0962413 24.58927856 2.09482635 25.3838501 2.09336853 C27.83927338 2.08778534 30.29460442 2.07523595 32.75 2.0625 C34.41796743 2.05748283 36.08593629 2.0529203 37.75390625 2.04882812 C41.83597287 2.03782141 45.91797081 2.02056836 50 2 C50 2.33 50 2.66 50 3 C44.8214886 4.04262865 39.81012239 4.19291891 34.55078125 4.23828125 C33.65634811 4.246353 32.76191498 4.25442474 31.84037781 4.26274109 C29.95862736 4.27651503 28.07685264 4.28726681 26.19506836 4.29516602 C24.26791075 4.30675475 22.34078691 4.32731345 20.41381836 4.35668945 C17.62591811 4.39915683 14.83896379 4.41549833 12.05078125 4.42578125 C10.7570031 4.45204338 10.7570031 4.45204338 9.43708801 4.47883606 C3.46584297 4.45703374 3.46584297 4.45703374 0.93432617 1.97338867 C0.62599854 1.32217041 0.3176709 0.67095215 0 0 Z " fill="#F3B011" transform="translate(655,454)"/>
<path d="M0 0 C2.93200474 2.85276137 5.64315404 5.65079784 8 9 C7 11 7 11 5 14 C4.5396236 17.19806665 4.5396236 17.19806665 4.375 20.6875 C4.30023437 21.86699219 4.22546875 23.04648437 4.1484375 24.26171875 C4.09945312 25.16535156 4.05046875 26.06898438 4 27 C3.67 27 3.34 27 3 27 C2.49578271 23.25055444 1.99735969 19.50036087 1.5 15.75 C1.35691406 14.68652344 1.21382812 13.62304688 1.06640625 12.52734375 C0.93105469 11.50253906 0.79570313 10.47773438 0.65625 9.421875 C0.53056641 8.47924805 0.40488281 7.53662109 0.27539062 6.56542969 C0 4 0 4 0 0 Z " fill="#F8BF22" transform="translate(797,297)"/>
<path d="M0 0 C0.66 0.66 1.32 1.32 2 2 C-0.75835999 9.92144406 -6.95272744 16.33068197 -13 22 C-11.60764311 18.1882507 -9.83376718 14.96245822 -7.625 11.5625 C-7.00753906 10.60859375 -6.39007812 9.6546875 -5.75390625 8.671875 C-3.84991002 5.77135513 -1.94249001 2.87488522 0 0 Z " fill="#F7F6F3" transform="translate(828,719)"/>
<path d="M0 0 C0.33 0 0.66 0 1 0 C1.02710123 2.5625718 1.04688771 5.12485365 1.0625 7.6875 C1.07087891 8.40873047 1.07925781 9.12996094 1.08789062 9.87304688 C1.12421226 17.82748478 1.12421226 17.82748478 0 21 C-2.0625 22.3125 -2.0625 22.3125 -4 23 C-2.7399707 15.31918309 -1.41621567 7.65359108 0 0 Z " fill="#E5E2DC" transform="translate(693,632)"/>
<path d="M0 0 C7.44379088 2.23313726 14.11976695 5.40272079 21 9 C18 11 18 11 15.8125 10.625 C15.214375 10.41875 14.61625 10.2125 14 10 C14.66 10 15.32 10 16 10 C16 9.34 16 8.68 16 8 C15.01 8.33 14.02 8.66 13 9 C12.61199219 8.56042969 12.22398437 8.12085938 11.82421875 7.66796875 C9.65083395 5.6807411 7.46339249 4.58630548 4.8125 3.3125 C3.91144531 2.87550781 3.01039063 2.43851563 2.08203125 1.98828125 C1.39496094 1.66214844 0.70789063 1.33601562 0 1 C0 0.67 0 0.34 0 0 Z " fill="#F6B718" transform="translate(577,160)"/>
<path d="M0 0 C1.32 0 2.64 0 4 0 C4 0.66 4 1.32 4 2 C4.66 2.33 5.32 2.66 6 3 C3.36 5.31 0.72 7.62 -2 10 C-3 8 -3 8 -2.44140625 6.0546875 C-2.15136719 5.33539063 -1.86132812 4.61609375 -1.5625 3.875 C-1.27503906 3.15054687 -0.98757812 2.42609375 -0.69140625 1.6796875 C-0.46324219 1.12539063 -0.23507813 0.57109375 0 0 Z " fill="#EEBE28" transform="translate(147,349)"/>
<path d="M0 0 C1.71017726 2.5652659 2.90417811 4.87960965 4.125 7.6875 C4.47820312 8.49574219 4.83140625 9.30398438 5.1953125 10.13671875 C5.46085937 10.75160156 5.72640625 11.36648438 6 12 C4.35 12.66 2.7 13.32 1 14 C0.67 9.38 0.34 4.76 0 0 Z " fill="#100B02" transform="translate(256,269)"/>
<path d="M0 0 C1.0536628 3.16098841 1.21514551 4.00887259 0 7 C-2.69792186 9.50521315 -5.55974272 10.75768487 -9 12 C-6 8 -3 4 0 0 Z " fill="#F8BD1E" transform="translate(779,408)"/>
<path d="M0 0 C1.75070517 0.11470137 3.50057536 0.24219028 5.25 0.375 C6.22453125 0.44460938 7.1990625 0.51421875 8.203125 0.5859375 C10.89633189 0.98465249 12.66963279 1.63507063 15 3 C13.06601192 3.27585566 11.12746091 3.51987415 9.1875 3.75 C8.10855469 3.88921875 7.02960937 4.0284375 5.91796875 4.171875 C3 4 3 4 1.11328125 2.015625 C0.74589844 1.35046875 0.37851562 0.6853125 0 0 Z " fill="#F6BA21" transform="translate(655,454)"/>
<path d="M0 0 C3.3 0.33 6.6 0.66 10 1 C5.63228707 3.91180862 2.44846409 4.12438648 -2.75 4.0625 C-3.73484375 4.05347656 -4.7196875 4.04445313 -5.734375 4.03515625 C-6.48203125 4.02355469 -7.2296875 4.01195312 -8 4 C-8 3.67 -8 3.34 -8 3 C-6.865625 2.87625 -5.73125 2.7525 -4.5625 2.625 C-3.386875 2.41875 -2.21125 2.2125 -1 2 C-0.67 1.34 -0.34 0.68 0 0 Z " fill="#D6D3D2" transform="translate(296,430)"/>
<path d="M0 0 C1.32 0.66 2.64 1.32 4 2 C-1.61 4.64 -7.22 7.28 -13 10 C-12.67 8.68 -12.34 7.36 -12 6 C-11.29875 5.896875 -10.5975 5.79375 -9.875 5.6875 C-6.57954861 4.89945728 -3.94149219 3.67130238 -1 2 C-0.67 1.34 -0.34 0.68 0 0 Z " fill="#F4BA22" transform="translate(582,172)"/>
<path d="M0 0 C2.31 0.66 4.62 1.32 7 2 C7 2.66 7 3.32 7 4 C5.1875 5.0625 5.1875 5.0625 3 6 C2.01 5.67 1.02 5.34 0 5 C0 3.35 0 1.7 0 0 Z " fill="#F8C325" transform="translate(231,294)"/>
<path d="M0 0 C1.34313399 0.64669414 2.67391178 1.31903578 4 2 C4.886875 2.45375 5.77375 2.9075 6.6875 3.375 C9 5 9 5 9.8125 7 C10 9 10 9 10 12 C8.33032474 10.19019128 6.66417692 8.3773524 5 6.5625 C4.28457031 5.7880957 4.28457031 5.7880957 3.5546875 4.99804688 C0 1.11328125 0 1.11328125 0 0 Z " fill="#F9E038" transform="translate(653,454)"/>
<path d="M0 0 C0.33 0.66 0.66 1.32 1 2 C-1.64 5.3 -4.28 8.6 -7 12 C-7 8.63667486 -6.39455845 7.64696728 -4.625 4.875 C-4.18414063 4.17117188 -3.74328125 3.46734375 -3.2890625 2.7421875 C-2 1 -2 1 0 0 Z " fill="#EFF0ED" transform="translate(823,729)"/>
<path d="M0 0 C0.33 0 0.66 0 1 0 C1 2.31 1 4.62 1 7 C-0.98 7.99 -0.98 7.99 -3 9 C-2.25 2.25 -2.25 2.25 0 0 Z " fill="#EEEDED" transform="translate(692,646)"/>
<path d="M0 0 C3.32153186 4.42870914 3.3460174 5.46608682 3.1875 10.75 C3.16042969 11.92046875 3.13335938 13.0909375 3.10546875 14.296875 C3.07066406 15.18890625 3.03585937 16.0809375 3 17 C2.67 17 2.34 17 2 17 C1.34 11.39 0.68 5.78 0 0 Z " fill="#EDAD21" transform="translate(797,297)"/>
<path d="M0 0 C1.98 0 3.96 0 6 0 C6.33 1.98 6.66 3.96 7 6 C3.73539027 4.19587357 2.11070205 3.16605307 0 0 Z " fill="#EDD14C" transform="translate(252,286)"/>
<path d="M0 0 C0.66 0.33 1.32 0.66 2 1 C2 1.66 2 2.32 2 3 C-2.625 5.125 -2.625 5.125 -6 4 C-4.02 2.68 -2.04 1.36 0 0 Z " fill="#1B0101" transform="translate(323,854)"/>
</svg>
